<svg xmlns="http://www.w3.org/2000/svg" width="63" height="78"><path fill="#F7F7F7" fill-rule="nonzero" d="M32.422 17.871c3.516 0 7.91-2.344 10.498-5.517 2.392-2.881 4.053-6.836 4.053-10.791 0-.538-.05-1.124-.147-1.563-3.857.146-8.545 2.588-11.328 5.908-2.197 2.49-4.248 6.446-4.248 10.45 0 .585.098 1.22.146 1.415.245.05.635.098 1.026.098M20.117 77.393c4.785 0 6.934-3.174 12.89-3.174 6.007 0 7.374 3.076 12.647 3.076 4.64 0 7.882-3.706 10.823-7.823l.4-.563q.396-.566.789-1.136c3.711-5.42 5.273-10.693 5.322-10.986-.293-.098-10.351-4.15-10.351-15.674 0-9.912 7.91-14.355 8.35-14.697-5.176-7.52-13.135-7.715-15.333-7.715-5.86 0-10.595 3.565-13.623 3.565-3.222 0-7.52-3.37-12.597-3.37C9.814 18.896 0 26.904 0 41.895c0 9.423 3.662 19.287 8.105 25.683 3.858 5.42 7.227 9.815 12.012 9.815"/></svg>