<?xml version="1.0" encoding="UTF-8"?>
<svg width="63px" height="78px" viewBox="0 0 63 78" version="1.1" xmlns="http://www.w3.org/2000/svg" xmlns:xlink="http://www.w3.org/1999/xlink">
    <title></title>
    <g id="Assets" stroke="none" stroke-width="1" fill="none" fill-rule="evenodd">
        <g id="Artboard" fill="#F7F7F7" fill-rule="nonzero">
            <path d="M32.421875,17.8710938 C35.9375,17.8710938 40.3320312,15.5273438 42.9199219,12.3535156 C45.3125,9.47265625 46.9726562,5.51757812 46.9726562,1.5625 C46.9726562,1.02539062 46.9238281,0.439453125 46.8261719,0 C42.96875,0.146484375 38.28125,2.58789062 35.4980469,5.90820312 C33.3007812,8.3984375 31.25,12.3535156 31.25,16.3574219 C31.25,16.9433594 31.3476562,17.578125 31.3964844,17.7734375 C31.640625,17.8222656 32.03125,17.8710938 32.421875,17.8710938 Z M20.1171875,77.3925781 C24.9023438,77.3925781 27.0507812,74.21875 33.0078125,74.21875 C39.0136719,74.21875 40.3808594,77.2949219 45.6542969,77.2949219 C50.2949219,77.2949219 53.5364844,73.5892969 56.4770594,69.4722719 L56.8762844,68.9086188 C57.1413281,68.5315625 57.4042969,68.1523438 57.6660156,67.7734375 C61.3769531,62.3535156 62.9394531,57.0800781 62.9882812,56.7871094 C62.6953125,56.6894531 52.6367188,52.6367188 52.6367188,41.1132812 C52.6367188,31.2011719 60.546875,26.7578125 60.9863281,26.4160156 C55.8105469,18.8964844 47.8515625,18.7011719 45.6542969,18.7011719 C39.7949219,18.7011719 35.0585938,22.265625 32.03125,22.265625 C28.8085938,22.265625 24.5117188,18.8964844 19.4335938,18.8964844 C9.81445312,18.8964844 0,26.9042969 0,41.8945312 C0,51.3183594 3.66210938,61.1816406 8.10546875,67.578125 C11.9628906,72.9980469 15.3320312,77.3925781 20.1171875,77.3925781 Z" id=""></path>
        </g>
    </g>
</svg>